<svg xmlns="http://www.w3.org/2000/svg" xmlns:xlink="http://www.w3.org/1999/xlink" width="24" height="24" viewBox="0 0 24 24">
    <defs>
        <path id="a" d="M0 0h14v18H0z"/>
    </defs>
    <g fill="none" fill-rule="evenodd" transform="translate(5 3)">
        <mask id="b" fill="#fff">
            <use xlink:href="#a"/>
        </mask>
        <path fill="#27B06E" d="M7.946 7.038s2.473-.826 4.011-.557c0 0-3.129.934-4.01.557M4.418 10.97s3.788-.96 6-1.257c0 0-3.873 1.993-6 1.257m6.852-8.294S4.16 9 3.005 12.93c0 0-1.231-3.773 8.266-10.253m-6.28 1.938c-.382.52-.584 3.91-.584 3.91-1.504-2.066.583-3.91.583-3.91M1.388 6.743c-3.481 4.227.682 7.312.682 7.312S.099 15.49.154 17.387L1.172 18s.526-2.41 1.638-3.365c0 0 5.136 2.142 8.346-3.099C14.025 6.85 14 0 14 0S5.25 2.055 1.388 6.743" mask="url(#b)"/>
    </g>
</svg>
